<svg xmlns="http://www.w3.org/2000/svg" width="864" height="296" viewBox="0 0 864.0 296" role="img">
<rect width="100%" height="100%" rx="6" fill="#1e1e1e"/>
<rect x="12.0" y="12" width="16.8" height="17" fill="#5f87d7"/>
<rect x="28.8" y="12" width="8.4" height="17" fill="#5f87d7"/>
<rect x="37.2" y="12" width="42.0" height="17" fill="#5f87d7"/>
<rect x="79.2" y="12" width="8.4" height="17" fill="#5f87d7"/>
<rect x="87.6" y="12" width="42.0" height="17" fill="#5f87d7"/>
<rect x="129.6" y="12" width="8.4" height="17" fill="#5f87d7"/>
<rect x="138.0" y="12" width="42.0" height="17" fill="#5f87d7"/>
<rect x="180.0" y="12" width="8.4" height="17" fill="#5f87d7"/>
<rect x="188.4" y="12" width="58.8" height="17" fill="#5f87d7"/>
<rect x="247.2" y="12" width="8.4" height="17" fill="#5f87d7"/>
<rect x="255.6" y="12" width="33.6" height="17" fill="#5f87d7"/>
<rect x="289.2" y="12" width="8.4" height="17" fill="#5f87d7"/>
<rect x="297.6" y="12" width="42.0" height="17" fill="#5f87d7"/>
<rect x="339.6" y="12" width="8.4" height="17" fill="#5f87d7"/>
<rect x="348.0" y="12" width="42.0" height="17" fill="#5f87d7"/>
<rect x="390.0" y="12" width="8.4" height="17" fill="#5f87d7"/>
<rect x="398.4" y="12" width="58.8" height="17" fill="#5f87d7"/>
<rect x="457.2" y="12" width="8.4" height="17" fill="#5f87d7"/>
<rect x="465.6" y="12" width="386.4" height="17" fill="#5f87d7"/>
<rect x="12.0" y="29" width="92.4" height="17" fill="#d0d0d0"/>
<rect x="12.0" y="46" width="92.4" height="17" fill="#d0d0d0"/>
<rect x="104.4" y="46" width="739.2" height="17" fill="#d0d0d0"/>
<rect x="12.0" y="63" width="92.4" height="17" fill="#282828"/>
<rect x="12.0" y="80" width="92.4" height="17" fill="#282828"/>
<rect x="12.0" y="97" width="92.4" height="17" fill="#282828"/>
<rect x="12.0" y="114" width="92.4" height="17" fill="#282828"/>
<rect x="12.0" y="131" width="92.4" height="17" fill="#282828"/>
<rect x="12.0" y="148" width="92.4" height="17" fill="#282828"/>
<rect x="12.0" y="165" width="92.4" height="17" fill="#282828"/>
<rect x="12.0" y="182" width="92.4" height="17" fill="#282828"/>
<rect x="12.0" y="199" width="92.4" height="17" fill="#282828"/>
<rect x="12.0" y="216" width="92.4" height="17" fill="#282828"/>
<rect x="12.0" y="233" width="92.4" height="17" fill="#282828"/>
<rect x="12.0" y="250" width="92.4" height="17" fill="#282828"/>
<rect x="12.0" y="267" width="67.2" height="17" fill="#5f87d7"/>
<rect x="79.2" y="267" width="25.2" height="17" fill="#5f87d7"/>
<rect x="297.6" y="267" width="201.6" height="17" fill="#5f87d7"/>
<rect x="499.2" y="267" width="50.4" height="17" fill="#3a3a3a"/>
<rect x="549.6" y="267" width="25.2" height="17" fill="#5f87d7"/>
<rect x="574.8" y="267" width="75.6" height="17" fill="#5f87d7"/>
<rect x="650.4" y="267" width="151.2" height="17" fill="#5f87d7"/>
<rect x="801.6" y="267" width="42.0" height="17" fill="#87d787"/>
<rect x="843.6" y="267" width="8.4" height="17" fill="#5f87d7"/>
<g font-family="ui-monospace, SFMono-Regular, Menlo, Consolas, 'DejaVu Sans Mono', monospace" font-size="14" fill="#d0d0d0" lengthAdjust="spacingAndGlyphs" xml:space="preserve">
<text x="28.8" y="25" textLength="8.4" fill="#1e1e1e" text-decoration="underline">F</text>
<text x="37.2" y="25" textLength="42.0" fill="#1e1e1e">ile  </text>
<text x="79.2" y="25" textLength="8.4" fill="#1e1e1e" text-decoration="underline">E</text>
<text x="87.6" y="25" textLength="42.0" fill="#1e1e1e">dit  </text>
<text x="129.6" y="25" textLength="8.4" fill="#1e1e1e" text-decoration="underline">V</text>
<text x="138.0" y="25" textLength="42.0" fill="#1e1e1e">iew  </text>
<text x="180.0" y="25" textLength="8.4" fill="#1e1e1e" text-decoration="underline">C</text>
<text x="188.4" y="25" textLength="58.8" fill="#1e1e1e">olumn  </text>
<text x="247.2" y="25" textLength="8.4" fill="#1e1e1e" text-decoration="underline">R</text>
<text x="255.6" y="25" textLength="33.6" fill="#1e1e1e">ow  </text>
<text x="289.2" y="25" textLength="8.4" fill="#1e1e1e" text-decoration="underline">D</text>
<text x="297.6" y="25" textLength="42.0" fill="#1e1e1e">ata  </text>
<text x="339.6" y="25" textLength="8.4" fill="#1e1e1e" text-decoration="underline">P</text>
<text x="348.0" y="25" textLength="42.0" fill="#1e1e1e">lot  </text>
<text x="390.0" y="25" textLength="8.4" fill="#1e1e1e" text-decoration="underline">S</text>
<text x="398.4" y="25" textLength="58.8" fill="#1e1e1e">ystem  </text>
<text x="457.2" y="25" textLength="8.4" fill="#1e1e1e" text-decoration="underline">H</text>
<text x="465.6" y="25" textLength="386.4" fill="#1e1e1e">elp     | VisiData 3.5dev | Support VisiData: </text>
<text x="12.0" y="42" textLength="92.4" fill="#1e1e1e" font-weight="bold" text-decoration="underline"> awardYear </text>
<text x="104.4" y="42" textLength="8.4">│</text>
<text x="112.8" y="42" textLength="168.0" text-decoration="underline"> category           </text>
<text x="280.8" y="42" textLength="8.4">│</text>
<text x="289.2" y="42" textLength="168.0" text-decoration="underline"> categoryFullName   </text>
<text x="457.2" y="42" textLength="8.4">│</text>
<text x="465.6" y="42" textLength="109.2" text-decoration="underline"> dateAwarded </text>
<text x="574.8" y="42" textLength="8.4">│</text>
<text x="583.2" y="42" textLength="109.2" text-decoration="underline"> prizeAmount#</text>
<text x="692.4" y="42" textLength="8.4">│</text>
<text x="700.8" y="42" textLength="134.4" text-decoration="underline"> prizeAmountAdju</text>
<text x="835.2" y="42" textLength="16.8">&gt; </text>
<text x="12.0" y="59" textLength="92.4" fill="#282828" font-weight="bold"> 1901      </text>
<text x="104.4" y="59" textLength="739.2" fill="#1e1e1e">│ {3} en=Chemistry n…│ {3} en=The Nobel P…│ 1901-11-12  │      150782 │        10833458 </text>
<text x="12.0" y="76" textLength="92.4" font-weight="bold"> 1901      </text>
<text x="104.4" y="76" textLength="747.6">│ {3} en=Literature …│ {3} en=The Nobel P…│ 1901-11-14  │      150782 │        10833458  </text>
<text x="12.0" y="93" textLength="92.4" font-weight="bold"> 1901      </text>
<text x="104.4" y="93" textLength="747.6">│ {3} en=Peace no=Fr…│ {3} en=The Nobel P…│ 1901-12-10  │      150782 │        10833458  </text>
<text x="12.0" y="110" textLength="92.4" font-weight="bold"> 1901      </text>
<text x="104.4" y="110" textLength="747.6">│ {3} en=Physics no=…│ {3} en=The Nobel P…│ 1901-11-12  │      150782 │        10833458  </text>
<text x="12.0" y="127" textLength="92.4" font-weight="bold"> 1901      </text>
<text x="104.4" y="127" textLength="747.6">│ {3} en=Physiology …│ {3} en=The Nobel P…│ 1901-10-30  │      150782 │        10833458  </text>
<text x="12.0" y="144" textLength="92.4" font-weight="bold"> 1902      </text>
<text x="104.4" y="144" textLength="747.6">│ {3} en=Chemistry n…│ {3} en=The Nobel P…│ 1902-11-11  │      141847 │        10191492  </text>
<text x="12.0" y="161" textLength="92.4" font-weight="bold"> 1902      </text>
<text x="104.4" y="161" textLength="747.6">│ {3} en=Literature …│ {3} en=The Nobel P…│ 1902-11-13  │      141847 │        10191492  </text>
<text x="12.0" y="178" textLength="92.4" font-weight="bold"> 1902      </text>
<text x="104.4" y="178" textLength="747.6">│ {3} en=Peace no=Fr…│ {3} en=The Nobel P…│ 1902-12-10  │      141847 │        10191492  </text>
<text x="12.0" y="195" textLength="92.4" font-weight="bold"> 1902      </text>
<text x="104.4" y="195" textLength="747.6">│ {3} en=Physics no=…│ {3} en=The Nobel P…│ 1902-11-11  │      141847 │        10191492  </text>
<text x="12.0" y="212" textLength="92.4" font-weight="bold"> 1902      </text>
<text x="104.4" y="212" textLength="747.6">│ {3} en=Physiology …│ {3} en=The Nobel P…│ 1902-10-30  │      141847 │        10191492  </text>
<text x="12.0" y="229" textLength="92.4" font-weight="bold"> 1903      </text>
<text x="104.4" y="229" textLength="747.6">│ {3} en=Chemistry n…│ {3} en=The Nobel P…│ 1903-11-12  │      141358 │         9857642  </text>
<text x="12.0" y="246" textLength="92.4" font-weight="bold"> 1903      </text>
<text x="104.4" y="246" textLength="747.6">│ {3} en=Literature …│ {3} en=The Nobel P…│ 1903-11-19  │      141358 │         9857642  </text>
<text x="12.0" y="263" textLength="92.4" font-weight="bold"> 1903      </text>
<text x="104.4" y="263" textLength="747.6">│ {3} en=Peace no=Fr…│ {3} en=The Nobel P…│ 1903-12-10  │      141358 │         9857642  </text>
<text x="12.0" y="280" textLength="67.2" fill="#1e1e1e" font-weight="bold">1›prizes</text>
<text x="79.2" y="280" textLength="25.2" fill="#1e1e1e"> | </text>
<text x="104.4" y="280" textLength="193.2" fill="#ffd7af">2›prizes[0].nobelPrizes</text>
<text x="297.6" y="280" textLength="201.6" fill="#1e1e1e">|                       </text>
<text x="499.2" y="280" textLength="50.4" font-weight="bold">zEnter</text>
<text x="574.8" y="280" textLength="75.6">open-cell</text>
<text x="650.4" y="280" textLength="151.2" fill="#1e1e1e">        682 dicts </text>
<text x="801.6" y="280" textLength="42.0" fill="#1e1e1e" font-weight="bold">[1/1]</text>
</g>
</svg>
