<svg xmlns="http://www.w3.org/2000/svg" width="864" height="296" viewBox="0 0 864.0 296" role="img">
<rect width="100%" height="100%" rx="6" fill="#1e1e1e"/>
<rect x="12.0" y="12" width="16.8" height="17" fill="#5f87d7"/>
<rect x="28.8" y="12" width="8.4" height="17" fill="#5f87d7"/>
<rect x="37.2" y="12" width="42.0" height="17" fill="#5f87d7"/>
<rect x="79.2" y="12" width="8.4" height="17" fill="#5f87d7"/>
<rect x="87.6" y="12" width="42.0" height="17" fill="#5f87d7"/>
<rect x="129.6" y="12" width="8.4" height="17" fill="#5f87d7"/>
<rect x="138.0" y="12" width="42.0" height="17" fill="#5f87d7"/>
<rect x="180.0" y="12" width="8.4" height="17" fill="#5f87d7"/>
<rect x="188.4" y="12" width="58.8" height="17" fill="#5f87d7"/>
<rect x="247.2" y="12" width="8.4" height="17" fill="#5f87d7"/>
<rect x="255.6" y="12" width="33.6" height="17" fill="#5f87d7"/>
<rect x="289.2" y="12" width="8.4" height="17" fill="#5f87d7"/>
<rect x="297.6" y="12" width="42.0" height="17" fill="#5f87d7"/>
<rect x="339.6" y="12" width="8.4" height="17" fill="#5f87d7"/>
<rect x="348.0" y="12" width="42.0" height="17" fill="#5f87d7"/>
<rect x="390.0" y="12" width="8.4" height="17" fill="#5f87d7"/>
<rect x="398.4" y="12" width="58.8" height="17" fill="#5f87d7"/>
<rect x="457.2" y="12" width="8.4" height="17" fill="#5f87d7"/>
<rect x="465.6" y="12" width="386.4" height="17" fill="#5f87d7"/>
<rect x="616.8" y="29" width="168.0" height="17" fill="#d0d0d0"/>
<rect x="12.0" y="46" width="588.0" height="17" fill="#d0d0d0"/>
<rect x="600.0" y="46" width="8.4" height="17" fill="#ffff00"/>
<rect x="608.4" y="46" width="8.4" height="17" fill="#d0d0d0"/>
<rect x="616.8" y="46" width="168.0" height="17" fill="#d0d0d0"/>
<rect x="784.8" y="46" width="50.4" height="17" fill="#d0d0d0"/>
<rect x="835.2" y="46" width="8.4" height="17" fill="#ffff00"/>
<rect x="616.8" y="63" width="168.0" height="17" fill="#282828"/>
<rect x="616.8" y="80" width="168.0" height="17" fill="#282828"/>
<rect x="616.8" y="97" width="168.0" height="17" fill="#282828"/>
<rect x="616.8" y="114" width="168.0" height="17" fill="#282828"/>
<rect x="616.8" y="131" width="168.0" height="17" fill="#282828"/>
<rect x="616.8" y="148" width="168.0" height="17" fill="#282828"/>
<rect x="616.8" y="165" width="168.0" height="17" fill="#282828"/>
<rect x="616.8" y="182" width="168.0" height="17" fill="#282828"/>
<rect x="616.8" y="199" width="168.0" height="17" fill="#282828"/>
<rect x="616.8" y="216" width="168.0" height="17" fill="#282828"/>
<rect x="616.8" y="233" width="168.0" height="17" fill="#282828"/>
<rect x="616.8" y="250" width="168.0" height="17" fill="#282828"/>
<rect x="12.0" y="267" width="67.2" height="17" fill="#5f87d7"/>
<rect x="79.2" y="267" width="25.2" height="17" fill="#5f87d7"/>
<rect x="104.4" y="267" width="168.0" height="17" fill="#5f87d7"/>
<rect x="272.4" y="267" width="25.2" height="17" fill="#5f87d7"/>
<rect x="549.6" y="267" width="8.4" height="17" fill="#5f87d7"/>
<rect x="558.0" y="267" width="8.4" height="17" fill="#3a3a3a"/>
<rect x="566.4" y="267" width="25.2" height="17" fill="#5f87d7"/>
<rect x="591.6" y="267" width="67.2" height="17" fill="#5f87d7"/>
<rect x="658.8" y="267" width="142.8" height="17" fill="#5f87d7"/>
<rect x="801.6" y="267" width="42.0" height="17" fill="#87d787"/>
<rect x="843.6" y="267" width="8.4" height="17" fill="#5f87d7"/>
<g font-family="ui-monospace, SFMono-Regular, Menlo, Consolas, 'DejaVu Sans Mono', monospace" font-size="14" fill="#d0d0d0" lengthAdjust="spacingAndGlyphs" xml:space="preserve">
<text x="28.8" y="25" textLength="8.4" fill="#1e1e1e" text-decoration="underline">F</text>
<text x="37.2" y="25" textLength="42.0" fill="#1e1e1e">ile  </text>
<text x="79.2" y="25" textLength="8.4" fill="#1e1e1e" text-decoration="underline">E</text>
<text x="87.6" y="25" textLength="42.0" fill="#1e1e1e">dit  </text>
<text x="129.6" y="25" textLength="8.4" fill="#1e1e1e" text-decoration="underline">V</text>
<text x="138.0" y="25" textLength="42.0" fill="#1e1e1e">iew  </text>
<text x="180.0" y="25" textLength="8.4" fill="#1e1e1e" text-decoration="underline">C</text>
<text x="188.4" y="25" textLength="58.8" fill="#1e1e1e">olumn  </text>
<text x="247.2" y="25" textLength="8.4" fill="#1e1e1e" text-decoration="underline">R</text>
<text x="255.6" y="25" textLength="33.6" fill="#1e1e1e">ow  </text>
<text x="289.2" y="25" textLength="8.4" fill="#1e1e1e" text-decoration="underline">D</text>
<text x="297.6" y="25" textLength="42.0" fill="#1e1e1e">ata  </text>
<text x="339.6" y="25" textLength="8.4" fill="#1e1e1e" text-decoration="underline">P</text>
<text x="348.0" y="25" textLength="42.0" fill="#1e1e1e">lot  </text>
<text x="390.0" y="25" textLength="8.4" fill="#1e1e1e" text-decoration="underline">S</text>
<text x="398.4" y="25" textLength="58.8" fill="#1e1e1e">ystem  </text>
<text x="457.2" y="25" textLength="8.4" fill="#1e1e1e" text-decoration="underline">H</text>
<text x="465.6" y="25" textLength="386.4" fill="#1e1e1e">elp     | VisiData 3.4 | Support VisiData: htt</text>
<text x="12.0" y="42" textLength="8.4">&lt;</text>
<text x="20.4" y="42" textLength="100.8" text-decoration="underline">prizeAmount#</text>
<text x="121.2" y="42" textLength="8.4">│</text>
<text x="129.6" y="42" textLength="168.0" text-decoration="underline"> prizeAmountAdjuste#</text>
<text x="297.6" y="42" textLength="8.4">│</text>
<text x="306.0" y="42" textLength="168.0" text-decoration="underline"> links              </text>
<text x="474.0" y="42" textLength="8.4">│</text>
<text x="482.4" y="42" textLength="126.0" text-decoration="underline"> laureates_key </text>
<text x="608.4" y="42" textLength="8.4">│</text>
<text x="616.8" y="42" textLength="168.0" fill="#1e1e1e" font-weight="bold" text-decoration="underline"> laureates_value    </text>
<text x="784.8" y="42" textLength="8.4">│</text>
<text x="793.2" y="42" textLength="50.4" text-decoration="underline"> topM…</text>
<text x="12.0" y="59" textLength="588.0" fill="#1e1e1e">      150782 │           10833458 │ [1] {4} rel=nobelP…│ 0            </text>
<text x="600.0" y="59" textLength="8.4" fill="#1e1e1e">#</text>
<text x="608.4" y="59" textLength="8.4" fill="#1e1e1e">│</text>
<text x="616.8" y="59" textLength="168.0" fill="#282828" font-weight="bold"> {7} id=160 knownNa…</text>
<text x="784.8" y="59" textLength="50.4" fill="#1e1e1e">│     </text>
<text x="835.2" y="59" textLength="8.4" fill="#1e1e1e">⌀</text>
<text x="12.0" y="76" textLength="588.0">      150782 │           10833458 │ [1] {4} rel=nobelP…│ 0            </text>
<text x="600.0" y="76" textLength="8.4" fill="#ffff00">#</text>
<text x="608.4" y="76" textLength="8.4">│</text>
<text x="616.8" y="76" textLength="168.0" font-weight="bold"> {7} id=569 knownNa…</text>
<text x="784.8" y="76" textLength="50.4">│     </text>
<text x="835.2" y="76" textLength="8.4" fill="#ffff00">⌀</text>
<text x="12.0" y="93" textLength="588.0">      150782 │           10833458 │ [1] {4} rel=nobelP…│ 0            </text>
<text x="600.0" y="93" textLength="8.4" fill="#ffff00">#</text>
<text x="608.4" y="93" textLength="8.4">│</text>
<text x="616.8" y="93" textLength="168.0" font-weight="bold"> {7} id=462 knownNa…</text>
<text x="784.8" y="93" textLength="50.4">│     </text>
<text x="835.2" y="93" textLength="8.4" fill="#ffff00">⌀</text>
<text x="12.0" y="110" textLength="588.0">      150782 │           10833458 │ [1] {4} rel=nobelP…│ 1            </text>
<text x="600.0" y="110" textLength="8.4" fill="#ffff00">#</text>
<text x="608.4" y="110" textLength="8.4">│</text>
<text x="616.8" y="110" textLength="168.0" font-weight="bold"> {7} id=463 knownNa…</text>
<text x="784.8" y="110" textLength="50.4">│     </text>
<text x="835.2" y="110" textLength="8.4" fill="#ffff00">⌀</text>
<text x="12.0" y="127" textLength="588.0">      150782 │           10833458 │ [1] {4} rel=nobelP…│ 0            </text>
<text x="600.0" y="127" textLength="8.4" fill="#ffff00">#</text>
<text x="608.4" y="127" textLength="8.4">│</text>
<text x="616.8" y="127" textLength="168.0" font-weight="bold"> {7} id=1 knownName…</text>
<text x="784.8" y="127" textLength="50.4">│     </text>
<text x="835.2" y="127" textLength="8.4" fill="#ffff00">⌀</text>
<text x="12.0" y="144" textLength="588.0">      150782 │           10833458 │ [1] {4} rel=nobelP…│ 0            </text>
<text x="600.0" y="144" textLength="8.4" fill="#ffff00">#</text>
<text x="608.4" y="144" textLength="8.4">│</text>
<text x="616.8" y="144" textLength="168.0" font-weight="bold"> {7} id=293 knownNa…</text>
<text x="784.8" y="144" textLength="50.4">│     </text>
<text x="835.2" y="144" textLength="8.4" fill="#ffff00">⌀</text>
<text x="12.0" y="161" textLength="588.0">      141847 │           10191492 │ [1] {4} rel=nobelP…│ 0            </text>
<text x="600.0" y="161" textLength="8.4" fill="#ffff00">#</text>
<text x="608.4" y="161" textLength="8.4">│</text>
<text x="616.8" y="161" textLength="168.0" font-weight="bold"> {7} id=161 knownNa…</text>
<text x="784.8" y="161" textLength="50.4">│     </text>
<text x="835.2" y="161" textLength="8.4" fill="#ffff00">⌀</text>
<text x="12.0" y="178" textLength="588.0">      141847 │           10191492 │ [1] {4} rel=nobelP…│ 0            </text>
<text x="600.0" y="178" textLength="8.4" fill="#ffff00">#</text>
<text x="608.4" y="178" textLength="8.4">│</text>
<text x="616.8" y="178" textLength="168.0" font-weight="bold"> {7} id=571 knownNa…</text>
<text x="784.8" y="178" textLength="50.4">│     </text>
<text x="835.2" y="178" textLength="8.4" fill="#ffff00">⌀</text>
<text x="12.0" y="195" textLength="588.0">      141847 │           10191492 │ [1] {4} rel=nobelP…│ 0            </text>
<text x="600.0" y="195" textLength="8.4" fill="#ffff00">#</text>
<text x="608.4" y="195" textLength="8.4">│</text>
<text x="616.8" y="195" textLength="168.0" font-weight="bold"> {7} id=464 knownNa…</text>
<text x="784.8" y="195" textLength="50.4">│     </text>
<text x="835.2" y="195" textLength="8.4" fill="#ffff00">⌀</text>
<text x="12.0" y="212" textLength="588.0">      141847 │           10191492 │ [1] {4} rel=nobelP…│ 1            </text>
<text x="600.0" y="212" textLength="8.4" fill="#ffff00">#</text>
<text x="608.4" y="212" textLength="8.4">│</text>
<text x="616.8" y="212" textLength="168.0" font-weight="bold"> {7} id=465 knownNa…</text>
<text x="784.8" y="212" textLength="50.4">│     </text>
<text x="835.2" y="212" textLength="8.4" fill="#ffff00">⌀</text>
<text x="12.0" y="229" textLength="588.0">      141847 │           10191492 │ [1] {4} rel=nobelP…│ 0            </text>
<text x="600.0" y="229" textLength="8.4" fill="#ffff00">#</text>
<text x="608.4" y="229" textLength="8.4">│</text>
<text x="616.8" y="229" textLength="168.0" font-weight="bold"> {7} id=2 knownName…</text>
<text x="784.8" y="229" textLength="50.4">│     </text>
<text x="835.2" y="229" textLength="8.4" fill="#ffff00">⌀</text>
<text x="12.0" y="246" textLength="588.0">      141847 │           10191492 │ [1] {4} rel=nobelP…│ 1            </text>
<text x="600.0" y="246" textLength="8.4" fill="#ffff00">#</text>
<text x="608.4" y="246" textLength="8.4">│</text>
<text x="616.8" y="246" textLength="168.0" font-weight="bold"> {7} id=3 knownName…</text>
<text x="784.8" y="246" textLength="50.4">│     </text>
<text x="835.2" y="246" textLength="8.4" fill="#ffff00">⌀</text>
<text x="12.0" y="263" textLength="588.0">      141847 │           10191492 │ [1] {4} rel=nobelP…│ 0            </text>
<text x="600.0" y="263" textLength="8.4" fill="#ffff00">#</text>
<text x="608.4" y="263" textLength="8.4">│</text>
<text x="616.8" y="263" textLength="168.0" font-weight="bold"> {7} id=294 knownNa…</text>
<text x="784.8" y="263" textLength="50.4">│     </text>
<text x="835.2" y="263" textLength="8.4" fill="#ffff00">⌀</text>
<text x="12.0" y="280" textLength="67.2" fill="#1e1e1e" font-weight="bold">1›prizes</text>
<text x="79.2" y="280" textLength="25.2" fill="#1e1e1e"> | </text>
<text x="104.4" y="280" textLength="168.0" fill="#1e1e1e" font-weight="bold">2›prizes[…obelPrizes</text>
<text x="272.4" y="280" textLength="25.2" fill="#1e1e1e"> | </text>
<text x="297.6" y="280" textLength="252.0" fill="#ffd7af">3›prizes[0].nobelPrizes_laurea</text>
<text x="558.0" y="280" textLength="8.4" font-weight="bold">l</text>
<text x="591.6" y="280" textLength="67.2">go-right</text>
<text x="658.8" y="280" textLength="142.8" fill="#1e1e1e">       1075 rows </text>
<text x="801.6" y="280" textLength="42.0" fill="#1e1e1e" font-weight="bold">[1/1]</text>
</g>
</svg>
